<svg width="64" height="64" viewBox="0 0 64 64" fill="none" xmlns="http://www.w3.org/2000/svg">
<circle cx="33" cy="33" r="29" fill="url(#paint0_radial_217_5870)"/>
<mask id="path-2-inside-1_217_5870" fill="white">
<path d="M33 9C28.2533 9 23.6131 10.4076 19.6663 13.0447C15.7195 15.6819 12.6434 19.4302 10.8269 23.8156C9.0104 28.201 8.53512 33.0266 9.46116 37.6822C10.3872 42.3377 12.673 46.6141 16.0294 49.9706C19.3859 53.327 23.6623 55.6128 28.3178 56.5388C32.9734 57.4649 37.799 56.9896 42.1844 55.1731C46.5698 53.3566 50.3181 50.2805 52.9553 46.3337C55.5924 42.3869 57 37.7467 57 33C57 26.6348 54.4714 20.5303 49.9706 16.0294C45.4697 11.5286 39.3652 9 33 9ZM43.2857 26.1429H36.4286V39.8571C36.4286 41.2133 36.0264 42.5391 35.2729 43.6668C34.5195 44.7944 33.4485 45.6733 32.1956 46.1923C30.9426 46.7113 29.5638 46.8471 28.2337 46.5825C26.9035 46.3179 25.6817 45.6649 24.7227 44.7059C23.7637 43.7469 23.1106 42.5251 22.8461 41.1949C22.5815 39.8647 22.7173 38.486 23.2363 37.233C23.7553 35.98 24.6342 34.9091 25.7618 34.1556C26.8895 33.4022 28.2152 33 29.5714 33C30.7786 33.0067 31.9621 33.3351 33 33.9514V19.2857H43.2857V26.1429Z"/>
</mask>
<path d="M33 9C28.2533 9 23.6131 10.4076 19.6663 13.0447C15.7195 15.6819 12.6434 19.4302 10.8269 23.8156C9.0104 28.201 8.53512 33.0266 9.46116 37.6822C10.3872 42.3377 12.673 46.6141 16.0294 49.9706C19.3859 53.327 23.6623 55.6128 28.3178 56.5388C32.9734 57.4649 37.799 56.9896 42.1844 55.1731C46.5698 53.3566 50.3181 50.2805 52.9553 46.3337C55.5924 42.3869 57 37.7467 57 33C57 26.6348 54.4714 20.5303 49.9706 16.0294C45.4697 11.5286 39.3652 9 33 9ZM43.2857 26.1429H36.4286V39.8571C36.4286 41.2133 36.0264 42.5391 35.2729 43.6668C34.5195 44.7944 33.4485 45.6733 32.1956 46.1923C30.9426 46.7113 29.5638 46.8471 28.2337 46.5825C26.9035 46.3179 25.6817 45.6649 24.7227 44.7059C23.7637 43.7469 23.1106 42.5251 22.8461 41.1949C22.5815 39.8647 22.7173 38.486 23.2363 37.233C23.7553 35.98 24.6342 34.9091 25.7618 34.1556C26.8895 33.4022 28.2152 33 29.5714 33C30.7786 33.0067 31.9621 33.3351 33 33.9514V19.2857H43.2857V26.1429Z" fill="url(#paint1_radial_217_5870)"/>
<g clip-path="url(#paint2_diamond_217_5870_clip_path)" data-figma-skip-parse="true" mask="url(#path-2-inside-1_217_5870)"><g transform="matrix(0 0.024 -0.024 0 33 33)"><rect x="0" y="0" width="1041.67" height="1041.67" fill="url(#paint2_diamond_217_5870)" opacity="1" shape-rendering="crispEdges"/><rect x="0" y="0" width="1041.67" height="1041.67" transform="scale(1 -1)" fill="url(#paint2_diamond_217_5870)" opacity="1" shape-rendering="crispEdges"/><rect x="0" y="0" width="1041.67" height="1041.67" transform="scale(-1 1)" fill="url(#paint2_diamond_217_5870)" opacity="1" shape-rendering="crispEdges"/><rect x="0" y="0" width="1041.67" height="1041.67" transform="scale(-1)" fill="url(#paint2_diamond_217_5870)" opacity="1" shape-rendering="crispEdges"/></g></g><path d="M43.2857 26.1429V27.1429H44.2857V26.1429H43.2857ZM36.4286 26.1429V25.1429H35.4286V26.1429H36.4286ZM29.5714 33L29.577 32H29.5714V33ZM33 33.9514L32.4894 34.8113L34 35.7082V33.9514H33ZM33 19.2857V18.2857H32V19.2857H33ZM43.2857 19.2857H44.2857V18.2857H43.2857V19.2857ZM33 9V8C28.0555 8 23.222 9.46622 19.1108 12.2133L19.6663 13.0447L20.2219 13.8762C24.0042 11.3489 28.451 10 33 10V9ZM19.6663 13.0447L19.1108 12.2133C14.9995 14.9603 11.7952 18.8648 9.90302 23.4329L10.8269 23.8156L11.7508 24.1983C13.4916 19.9956 16.4396 16.4035 20.2219 13.8762L19.6663 13.0447ZM10.8269 23.8156L9.90302 23.4329C8.01083 28.0011 7.51575 33.0277 8.48038 37.8773L9.46116 37.6822L10.4419 37.4871C9.55449 33.0255 10.01 28.401 11.7508 24.1983L10.8269 23.8156ZM9.46116 37.6822L8.48038 37.8773C9.44501 42.7268 11.826 47.1814 15.3223 50.6777L16.0294 49.9706L16.7366 49.2634C13.5199 46.0468 11.3294 41.9486 10.4419 37.4871L9.46116 37.6822ZM16.0294 49.9706L15.3223 50.6777C18.8187 54.174 23.2732 56.555 28.1227 57.5196L28.3178 56.5388L28.5129 55.5581C24.0514 54.6706 19.9532 52.4801 16.7366 49.2634L16.0294 49.9706ZM28.3178 56.5388L28.1227 57.5196C32.9723 58.4843 37.9989 57.9892 42.5671 56.097L42.1844 55.1731L41.8017 54.2492C37.599 55.99 32.9745 56.4455 28.5129 55.5581L28.3178 56.5388ZM42.1844 55.1731L42.5671 56.097C47.1352 54.2048 51.0397 51.0005 53.7867 46.8892L52.9553 46.3337L52.1238 45.7781C49.5965 49.5604 46.0044 52.5084 41.8017 54.2492L42.1844 55.1731ZM52.9553 46.3337L53.7867 46.8892C56.5338 42.778 58 37.9445 58 33H57H56C56 37.549 54.6511 41.9958 52.1238 45.7781L52.9553 46.3337ZM57 33H58C58 26.3696 55.3661 20.0107 50.6777 15.3223L49.9706 16.0294L49.2635 16.7365C53.5768 21.0499 56 26.9 56 33H57ZM49.9706 16.0294L50.6777 15.3223C45.9893 10.6339 39.6304 8 33 8V9V10C39.1 10 44.9501 12.4232 49.2635 16.7365L49.9706 16.0294ZM43.2857 26.1429V25.1429H36.4286V26.1429V27.1429H43.2857V26.1429ZM36.4286 26.1429H35.4286V39.8571H36.4286H37.4286V26.1429H36.4286ZM36.4286 39.8571H35.4286C35.4286 41.0156 35.0851 42.148 34.4415 43.1112L35.2729 43.6668L36.1044 44.2223C36.9678 42.9302 37.4286 41.4111 37.4286 39.8571H36.4286ZM35.2729 43.6668L34.4415 43.1112C33.7979 44.0744 32.8831 44.8251 31.8129 45.2684L32.1956 46.1923L32.5782 47.1162C34.0139 46.5215 35.2411 45.5144 36.1044 44.2223L35.2729 43.6668ZM32.1956 46.1923L31.8129 45.2684C30.7426 45.7117 29.5649 45.8277 28.4288 45.6017L28.2337 46.5825L28.0386 47.5633C29.5627 47.8665 31.1425 47.7109 32.5782 47.1162L32.1956 46.1923ZM28.2337 46.5825L28.4288 45.6017C27.2926 45.3757 26.2489 44.8179 25.4298 43.9988L24.7227 44.7059L24.0156 45.413C25.1144 46.5118 26.5144 47.2601 28.0386 47.5633L28.2337 46.5825ZM24.7227 44.7059L25.4298 43.9988C24.6107 43.1796 24.0528 42.136 23.8268 40.9998L22.8461 41.1949L21.8653 41.39C22.1684 42.9141 22.9168 44.3141 24.0156 45.413L24.7227 44.7059ZM22.8461 41.1949L23.8268 40.9998C23.6008 39.8636 23.7168 38.686 24.1601 37.6157L23.2363 37.233L22.3124 36.8503C21.7177 38.286 21.5621 39.8659 21.8653 41.39L22.8461 41.1949ZM23.2363 37.233L24.1601 37.6157C24.6035 36.5455 25.3542 35.6307 26.3174 34.9871L25.7618 34.1556L25.2062 33.3242C23.9141 34.1875 22.9071 35.4146 22.3124 36.8503L23.2363 37.233ZM25.7618 34.1556L26.3174 34.9871C27.2806 34.3435 28.413 34 29.5714 34V33V32C28.0174 32 26.4983 32.4608 25.2062 33.3242L25.7618 34.1556ZM29.5714 33L29.5659 34C30.5952 34.0057 31.6044 34.2857 32.4894 34.8113L33 33.9514L33.5106 33.0916C32.3197 32.3845 30.9619 32.0077 29.577 32L29.5714 33ZM33 33.9514H34V19.2857H33H32V33.9514H33ZM33 19.2857V20.2857H43.2857V19.2857V18.2857H33V19.2857ZM43.2857 19.2857H42.2857V26.1429H43.2857H44.2857V19.2857H43.2857Z" data-figma-gradient-fill="{&#34;type&#34;:&#34;GRADIENT_DIAMOND&#34;,&#34;stops&#34;:[{&#34;color&#34;:{&#34;r&#34;:0.19230769574642181,&#34;g&#34;:0.18343201279640198,&#34;b&#34;:0.15902367234230042,&#34;a&#34;:1.0},&#34;position&#34;:0.10096153616905212},{&#34;color&#34;:{&#34;r&#34;:0.12019230425357819,&#34;g&#34;:0.10262585431337357,&#34;b&#34;:0.054317679256200790,&#34;a&#34;:1.0},&#34;position&#34;:1.0}],&#34;stopsVar&#34;:[{&#34;color&#34;:{&#34;r&#34;:0.19230769574642181,&#34;g&#34;:0.18343201279640198,&#34;b&#34;:0.15902367234230042,&#34;a&#34;:1.0},&#34;position&#34;:0.10096153616905212},{&#34;color&#34;:{&#34;r&#34;:0.12019230425357819,&#34;g&#34;:0.10262585431337357,&#34;b&#34;:0.054317679256200790,&#34;a&#34;:1.0},&#34;position&#34;:1.0}],&#34;transform&#34;:{&#34;m00&#34;:2.9391524462044029e-15,&#34;m01&#34;:-48.0,&#34;m02&#34;:57.0,&#34;m10&#34;:48.0,&#34;m11&#34;:2.9391524462044029e-15,&#34;m12&#34;:9.0},&#34;opacity&#34;:1.0,&#34;blendMode&#34;:&#34;NORMAL&#34;,&#34;visible&#34;:true}" mask="url(#path-2-inside-1_217_5870)"/>
<defs>
<clipPath id="paint2_diamond_217_5870_clip_path"><path d="M43.2857 26.1429V27.1429H44.2857V26.1429H43.2857ZM36.4286 26.1429V25.1429H35.4286V26.1429H36.4286ZM29.5714 33L29.577 32H29.5714V33ZM33 33.9514L32.4894 34.8113L34 35.7082V33.9514H33ZM33 19.2857V18.2857H32V19.2857H33ZM43.2857 19.2857H44.2857V18.2857H43.2857V19.2857ZM33 9V8C28.0555 8 23.222 9.46622 19.1108 12.2133L19.6663 13.0447L20.2219 13.8762C24.0042 11.3489 28.451 10 33 10V9ZM19.6663 13.0447L19.1108 12.2133C14.9995 14.9603 11.7952 18.8648 9.90302 23.4329L10.8269 23.8156L11.7508 24.1983C13.4916 19.9956 16.4396 16.4035 20.2219 13.8762L19.6663 13.0447ZM10.8269 23.8156L9.90302 23.4329C8.01083 28.0011 7.51575 33.0277 8.48038 37.8773L9.46116 37.6822L10.4419 37.4871C9.55449 33.0255 10.01 28.401 11.7508 24.1983L10.8269 23.8156ZM9.46116 37.6822L8.48038 37.8773C9.44501 42.7268 11.826 47.1814 15.3223 50.6777L16.0294 49.9706L16.7366 49.2634C13.5199 46.0468 11.3294 41.9486 10.4419 37.4871L9.46116 37.6822ZM16.0294 49.9706L15.3223 50.6777C18.8187 54.174 23.2732 56.555 28.1227 57.5196L28.3178 56.5388L28.5129 55.5581C24.0514 54.6706 19.9532 52.4801 16.7366 49.2634L16.0294 49.9706ZM28.3178 56.5388L28.1227 57.5196C32.9723 58.4843 37.9989 57.9892 42.5671 56.097L42.1844 55.1731L41.8017 54.2492C37.599 55.99 32.9745 56.4455 28.5129 55.5581L28.3178 56.5388ZM42.1844 55.1731L42.5671 56.097C47.1352 54.2048 51.0397 51.0005 53.7867 46.8892L52.9553 46.3337L52.1238 45.7781C49.5965 49.5604 46.0044 52.5084 41.8017 54.2492L42.1844 55.1731ZM52.9553 46.3337L53.7867 46.8892C56.5338 42.778 58 37.9445 58 33H57H56C56 37.549 54.6511 41.9958 52.1238 45.7781L52.9553 46.3337ZM57 33H58C58 26.3696 55.3661 20.0107 50.6777 15.3223L49.9706 16.0294L49.2635 16.7365C53.5768 21.0499 56 26.9 56 33H57ZM49.9706 16.0294L50.6777 15.3223C45.9893 10.6339 39.6304 8 33 8V9V10C39.1 10 44.9501 12.4232 49.2635 16.7365L49.9706 16.0294ZM43.2857 26.1429V25.1429H36.4286V26.1429V27.1429H43.2857V26.1429ZM36.4286 26.1429H35.4286V39.8571H36.4286H37.4286V26.1429H36.4286ZM36.4286 39.8571H35.4286C35.4286 41.0156 35.0851 42.148 34.4415 43.1112L35.2729 43.6668L36.1044 44.2223C36.9678 42.9302 37.4286 41.4111 37.4286 39.8571H36.4286ZM35.2729 43.6668L34.4415 43.1112C33.7979 44.0744 32.8831 44.8251 31.8129 45.2684L32.1956 46.1923L32.5782 47.1162C34.0139 46.5215 35.2411 45.5144 36.1044 44.2223L35.2729 43.6668ZM32.1956 46.1923L31.8129 45.2684C30.7426 45.7117 29.5649 45.8277 28.4288 45.6017L28.2337 46.5825L28.0386 47.5633C29.5627 47.8665 31.1425 47.7109 32.5782 47.1162L32.1956 46.1923ZM28.2337 46.5825L28.4288 45.6017C27.2926 45.3757 26.2489 44.8179 25.4298 43.9988L24.7227 44.7059L24.0156 45.413C25.1144 46.5118 26.5144 47.2601 28.0386 47.5633L28.2337 46.5825ZM24.7227 44.7059L25.4298 43.9988C24.6107 43.1796 24.0528 42.136 23.8268 40.9998L22.8461 41.1949L21.8653 41.39C22.1684 42.9141 22.9168 44.3141 24.0156 45.413L24.7227 44.7059ZM22.8461 41.1949L23.8268 40.9998C23.6008 39.8636 23.7168 38.686 24.1601 37.6157L23.2363 37.233L22.3124 36.8503C21.7177 38.286 21.5621 39.8659 21.8653 41.39L22.8461 41.1949ZM23.2363 37.233L24.1601 37.6157C24.6035 36.5455 25.3542 35.6307 26.3174 34.9871L25.7618 34.1556L25.2062 33.3242C23.9141 34.1875 22.9071 35.4146 22.3124 36.8503L23.2363 37.233ZM25.7618 34.1556L26.3174 34.9871C27.2806 34.3435 28.413 34 29.5714 34V33V32C28.0174 32 26.4983 32.4608 25.2062 33.3242L25.7618 34.1556ZM29.5714 33L29.5659 34C30.5952 34.0057 31.6044 34.2857 32.4894 34.8113L33 33.9514L33.5106 33.0916C32.3197 32.3845 30.9619 32.0077 29.577 32L29.5714 33ZM33 33.9514H34V19.2857H33H32V33.9514H33ZM33 19.2857V20.2857H43.2857V19.2857V18.2857H33V19.2857ZM43.2857 19.2857H42.2857V26.1429H43.2857H44.2857V19.2857H43.2857Z" mask="url(#path-2-inside-1_217_5870)"/></clipPath><radialGradient id="paint0_radial_217_5870" cx="0" cy="0" r="1" gradientUnits="userSpaceOnUse" gradientTransform="translate(33 33) rotate(90) scale(29)">
<stop offset="0.0384615" stop-color="#E351C3"/>
<stop offset="0.283654" stop-color="#B236A9"/>
<stop offset="0.495192" stop-color="#7E1A8D"/>
<stop offset="0.711538" stop-color="#7E1A8D"/>
<stop offset="1" stop-color="#281155"/>
</radialGradient>
<radialGradient id="paint1_radial_217_5870" cx="0" cy="0" r="1" gradientUnits="userSpaceOnUse" gradientTransform="translate(33 33) rotate(90) scale(24)">
<stop offset="0.0865385" stop-color="#109EBE"/>
<stop offset="0.269231" stop-color="#1A98CE"/>
<stop offset="0.572115" stop-color="#2261B3"/>
<stop offset="0.894231" stop-color="#04182A"/>
</radialGradient>
<linearGradient id="paint2_diamond_217_5870" x1="0" y1="0" x2="500" y2="500" gradientUnits="userSpaceOnUse">
<stop offset="0.100962" stop-color="#312F29"/>
<stop offset="1" stop-color="#1F1A0E"/>
</linearGradient>
</defs>
</svg>
